<svg width="288" height="288" xmlns="http://www.w3.org/2000/svg" xmlns:xlink="http://www.w3.org/1999/xlink" xml:space="preserve" overflow="hidden"><defs><clipPath id="clip0"><rect x="36" y="141" width="288" height="288"/></clipPath><clipPath id="clip1"><rect x="37" y="142" width="287" height="287"/></clipPath><clipPath id="clip2"><rect x="37" y="142" width="287" height="287"/></clipPath><clipPath id="clip3"><rect x="37" y="142" width="287" height="287"/></clipPath></defs><g clip-path="url(#clip0)" transform="translate(-36 -141)"><g clip-path="url(#clip1)"><g clip-path="url(#clip2)"><g clip-path="url(#clip3)"><path d="M168.503 282.51C165.455 280.244 161.372 279.938 158.021 281.727L158.021 281.727C155.359 282.678 153.973 285.607 154.924 288.269 154.997 288.473 155.083 288.673 155.181 288.866 157.468 293.763 167.944 299.36 173.717 299.36 174.463 299.382 175.206 299.255 175.902 298.986L177.098 298.325 177.22 297.112C176.248 291.324 173.137 286.112 168.503 282.51Z" stroke="#002060" stroke-width="2.98961" stroke-linecap="butt" stroke-linejoin="miter" stroke-miterlimit="4" stroke-opacity="1" fill="#0070C0" fill-rule="nonzero" fill-opacity="1"/><path d="M202.985 281.733 202.985 281.733C199.633 279.94 195.548 280.243 192.497 282.51 187.865 286.115 184.757 291.329 183.789 297.118L183.992 298.514 185.116 298.992C185.811 299.262 186.553 299.39 187.298 299.369 193.071 299.369 203.55 293.769 205.834 288.872 207.113 286.352 206.107 283.271 203.587 281.992 203.392 281.893 203.191 281.806 202.985 281.733Z" stroke="#002060" stroke-width="2.98961" stroke-linecap="butt" stroke-linejoin="miter" stroke-miterlimit="4" stroke-opacity="1" fill="#0070C0" fill-rule="nonzero" fill-opacity="1"/><path d="M217.87 222.719C217.87 221.068 216.531 219.729 214.88 219.729L183.49 219.729 183.49 213.251C183.49 211.6 182.151 210.261 180.5 210.261 178.849 210.261 177.51 211.6 177.51 213.251L177.51 219.729 146.12 219.729C144.469 219.729 143.13 221.068 143.13 222.719 143.13 224.37 144.469 225.708 146.12 225.708L177.51 225.708 177.51 231.688 162.562 231.688C160.911 231.688 159.573 233.026 159.573 234.677 159.573 236.328 160.911 237.667 162.562 237.667L177.51 237.667 177.51 243.646 162.562 243.646C160.911 243.646 159.573 244.984 159.573 246.635 159.573 248.287 160.911 249.625 162.562 249.625L177.51 249.625 177.51 255.604 162.562 255.604C160.911 255.604 159.573 256.943 159.573 258.594 159.573 260.245 160.911 261.583 162.562 261.583L177.51 261.583 177.51 282.621C177.51 284.272 178.849 285.611 180.5 285.611 182.151 285.611 183.49 284.272 183.49 282.621L183.49 261.601 198.438 261.601C200.089 261.601 201.427 260.263 201.427 258.612 201.427 256.961 200.089 255.622 198.438 255.622L183.49 255.622 183.49 249.625 198.438 249.625C200.089 249.625 201.427 248.287 201.427 246.635 201.427 244.984 200.089 243.646 198.438 243.646L183.49 243.646 183.49 237.667 198.438 237.667C200.089 237.667 201.427 236.328 201.427 234.677 201.427 233.026 200.089 231.688 198.438 231.688L183.49 231.688 183.49 225.708 214.88 225.708C216.531 225.708 217.87 224.37 217.87 222.719Z" stroke="#002060" stroke-width="2.98961" stroke-linecap="butt" stroke-linejoin="miter" stroke-miterlimit="4" stroke-opacity="1" fill="#0070C0" fill-rule="nonzero" fill-opacity="1"/><path d="M135.74 264.151C134.131 263.779 132.526 264.782 132.154 266.391 132.153 266.393 132.153 266.395 132.152 266.397L127.217 287.922C126.845 289.53 127.847 291.136 129.456 291.508 129.458 291.508 129.46 291.509 129.462 291.509 129.682 291.559 129.906 291.584 130.132 291.584 131.524 291.583 132.732 290.621 133.043 289.264L137.979 267.739C138.352 266.13 137.35 264.524 135.741 264.152 135.741 264.152 135.741 264.151 135.74 264.151Z" stroke="#002060" stroke-width="2.98961" stroke-linecap="butt" stroke-linejoin="miter" stroke-miterlimit="4" stroke-opacity="1" fill="#0070C0" fill-rule="nonzero" fill-opacity="1"/><path d="M143.181 231.714C141.572 231.342 139.967 232.345 139.595 233.954 139.594 233.956 139.594 233.957 139.594 233.96L134.676 255.419C134.304 257.027 135.306 258.633 136.915 259.005 136.917 259.005 136.919 259.006 136.921 259.006 137.141 259.056 137.365 259.081 137.59 259.081 138.983 259.08 140.191 258.118 140.502 256.761L145.423 235.305C145.797 233.697 144.796 232.09 143.188 231.716 143.186 231.716 143.183 231.715 143.181 231.714Z" stroke="#002060" stroke-width="2.98961" stroke-linecap="butt" stroke-linejoin="miter" stroke-miterlimit="4" stroke-opacity="1" fill="#0070C0" fill-rule="nonzero" fill-opacity="1"/><path d="M231.562 291.584C231.788 291.584 232.014 291.559 232.235 291.509 233.844 291.14 234.85 289.537 234.481 287.927 234.481 287.925 234.48 287.923 234.48 287.922L229.529 266.367C229.192 264.75 227.609 263.713 225.992 264.05 224.376 264.387 223.339 265.971 223.676 267.587 223.684 267.626 223.693 267.664 223.702 267.703L228.644 289.264C228.957 290.623 230.167 291.586 231.562 291.584Z" stroke="#002060" stroke-width="2.98961" stroke-linecap="butt" stroke-linejoin="miter" stroke-miterlimit="4" stroke-opacity="1" fill="#0070C0" fill-rule="nonzero" fill-opacity="1"/><path d="M224.77 258.949C226.379 258.581 227.385 256.977 227.016 255.368 227.016 255.366 227.016 255.364 227.015 255.362L222.103 233.96C221.754 232.346 220.163 231.32 218.55 231.669 216.936 232.017 215.91 233.608 216.259 235.222 216.264 235.248 216.27 235.273 216.276 235.299L221.185 256.704C221.496 258.062 222.704 259.026 224.097 259.027 224.323 259.026 224.549 259 224.77 258.949Z" stroke="#002060" stroke-width="2.98961" stroke-linecap="butt" stroke-linejoin="miter" stroke-miterlimit="4" stroke-opacity="1" fill="#0070C0" fill-rule="nonzero" fill-opacity="1"/><path d="M134.161 301.443C134.161 305.571 130.815 308.917 126.688 308.917 122.56 308.917 119.214 305.571 119.214 301.443 119.214 297.316 122.56 293.969 126.688 293.969 130.815 293.969 134.161 297.316 134.161 301.443Z" stroke="#002060" stroke-width="2.98961" stroke-linecap="butt" stroke-linejoin="miter" stroke-miterlimit="4" stroke-opacity="1" fill="#0070C0" fill-rule="nonzero" fill-opacity="1"/><path d="M242.286 301.443C242.286 305.571 238.94 308.917 234.812 308.917 230.684 308.917 227.338 305.571 227.338 301.443 227.338 297.316 230.684 293.969 234.812 293.969 238.94 293.969 242.286 297.316 242.286 301.443Z" stroke="#002060" stroke-width="2.98961" stroke-linecap="butt" stroke-linejoin="miter" stroke-miterlimit="4" stroke-opacity="1" fill="#0070C0" fill-rule="nonzero" fill-opacity="1"/><path d="M162.562 347.268C164.214 347.268 165.552 345.929 165.552 344.278L165.552 306.31C165.552 304.659 164.214 303.321 162.562 303.321 160.911 303.321 159.573 304.659 159.573 306.31L159.573 344.278C159.573 345.929 160.911 347.268 162.562 347.268Z" stroke="#002060" stroke-width="2.98961" stroke-linecap="butt" stroke-linejoin="miter" stroke-miterlimit="4" stroke-opacity="1" fill="#0070C0" fill-rule="nonzero" fill-opacity="1"/><path d="M159.573 390.135C159.573 391.787 160.911 393.125 162.562 393.125 164.214 393.125 165.552 391.787 165.552 390.135L165.552 355.062C165.552 353.41 164.214 352.072 162.562 352.072 160.911 352.072 159.573 353.41 159.573 355.062Z" stroke="#002060" stroke-width="2.98961" stroke-linecap="butt" stroke-linejoin="miter" stroke-miterlimit="4" stroke-opacity="1" fill="#0070C0" fill-rule="nonzero" fill-opacity="1"/><path d="M198.467 347.268C200.119 347.268 201.457 345.929 201.457 344.278L201.457 306.31C201.457 304.659 200.119 303.321 198.467 303.321 196.816 303.321 195.478 304.659 195.478 306.31L195.478 344.278C195.478 345.929 196.816 347.268 198.467 347.268Z" stroke="#002060" stroke-width="2.98961" stroke-linecap="butt" stroke-linejoin="miter" stroke-miterlimit="4" stroke-opacity="1" fill="#0070C0" fill-rule="nonzero" fill-opacity="1"/><path d="M195.478 390.135C195.478 391.787 196.816 393.125 198.467 393.125 200.119 393.125 201.457 391.787 201.457 390.135L201.457 355.062C201.457 353.41 200.119 352.072 198.467 352.072 196.816 352.072 195.478 353.41 195.478 355.062Z" stroke="#002060" stroke-width="2.98961" stroke-linecap="butt" stroke-linejoin="miter" stroke-miterlimit="4" stroke-opacity="1" fill="#0070C0" fill-rule="nonzero" fill-opacity="1"/><path d="M162.562 398.605C159.26 398.605 156.583 401.282 156.583 404.584L156.583 408.073C156.583 411.375 159.26 414.052 162.562 414.052 165.865 414.052 168.542 411.375 168.542 408.073L168.542 404.584C168.542 401.282 165.865 398.605 162.562 398.605Z" stroke="#002060" stroke-width="2.98961" stroke-linecap="butt" stroke-linejoin="miter" stroke-miterlimit="4" stroke-opacity="1" fill="#0070C0" fill-rule="nonzero" fill-opacity="1"/><path d="M198.438 398.605C195.135 398.605 192.458 401.282 192.458 404.584L192.458 408.073C192.458 411.375 195.135 414.052 198.438 414.052 201.74 414.052 204.417 411.375 204.417 408.073L204.417 404.584C204.417 401.282 201.74 398.605 198.438 398.605Z" stroke="#002060" stroke-width="2.98961" stroke-linecap="butt" stroke-linejoin="miter" stroke-miterlimit="4" stroke-opacity="1" fill="#0070C0" fill-rule="nonzero" fill-opacity="1"/><path d="M180.5 149.689C168.514 150.161 159.162 160.228 159.573 172.216 159.514 176.903 161.101 181.463 164.057 185.101L164.057 187.911C164.022 191.041 166.143 193.785 169.181 194.539L169.181 198.802C169.181 200.453 170.52 201.792 172.171 201.792L188.829 201.792C190.48 201.792 191.819 200.453 191.819 198.802L191.819 194.539C194.857 193.785 196.978 191.041 196.943 187.911L196.943 185.101C199.899 181.463 201.486 176.903 201.427 172.216 201.838 160.228 192.486 150.161 180.5 149.689ZM176.016 198.802 173.026 198.802 173.026 192.823 176.016 192.823ZM172.727 180.865C169.598 180.865 167.062 178.328 167.062 175.199 167.062 172.07 169.598 169.534 172.727 169.534 175.856 169.534 178.392 172.07 178.392 175.199 178.394 178.326 175.86 180.863 172.733 180.865 172.731 180.865 172.729 180.865 172.727 180.865ZM181.995 198.802 179.005 198.802 179.005 192.823 181.995 192.823ZM182.174 187.911 178.826 187.911C178.022 187.912 177.369 187.261 177.368 186.457 177.368 186.192 177.44 185.932 177.576 185.705L179.25 182.912C179.666 182.222 180.563 182 181.253 182.416 181.456 182.538 181.627 182.709 181.75 182.912L183.424 185.705C183.838 186.394 183.616 187.288 182.927 187.703 182.699 187.839 182.439 187.911 182.174 187.911ZM187.974 198.802 184.984 198.802 184.984 192.823 187.974 192.823ZM188.273 180.865C185.144 180.856 182.614 178.313 182.623 175.184 182.631 172.055 185.174 169.526 188.303 169.534 191.426 169.542 193.953 172.076 193.953 175.199 193.945 178.325 191.413 180.857 188.288 180.865Z" stroke="#002060" stroke-width="2.98961" stroke-linecap="butt" stroke-linejoin="miter" stroke-miterlimit="4" stroke-opacity="1" fill="#0070C0" fill-rule="nonzero" fill-opacity="1"/></g></g></g></g></svg>