<svg version="1.1" id="Layer_1" xmlns="http://www.w3.org/2000/svg" xmlns:xlink="http://www.w3.org/1999/xlink" x="0px" y="0px"
	 width="100%" viewBox="0 0 921 362" enable-background="new 0 0 921 362" xml:space="preserve">
<path fill="#000000" opacity="1.000000" stroke="none" 
	d="
M560.000000,363.000000 
	C373.333344,363.000000 187.166672,363.000000 1.000000,363.000000 
	C1.000000,242.333328 1.000000,121.666664 1.000000,1.000000 
	C308.000000,1.000000 615.000000,1.000000 922.000000,1.000000 
	C922.000000,121.666664 922.000000,242.333328 922.000000,363.000000 
	C801.500000,363.000000 681.000000,363.000000 560.000000,363.000000 
M265.999237,176.673553 
	C269.657257,176.609589 273.317841,176.431335 276.972656,176.512024 
	C281.070374,176.602509 284.554260,175.989166 287.890076,172.926208 
	C293.587433,167.694870 300.011322,163.264069 305.964722,158.298813 
	C309.467255,155.377625 313.794495,152.640518 315.695312,148.802567 
	C318.196564,143.752289 318.826019,137.731400 319.976410,132.070175 
	C320.812988,127.953468 321.121277,123.732346 321.787720,119.577446 
	C322.764526,113.487434 324.352264,107.426575 320.744171,101.565941 
	C315.817871,93.564186 310.871033,85.568336 306.224792,77.403900 
	C304.019287,73.528297 302.053711,70.099945 297.267090,68.552208 
	C286.826874,65.176407 276.646057,61.003929 266.239197,57.514984 
	C264.128235,56.807270 261.323547,57.179565 259.120270,57.906940 
	C249.290802,61.151997 239.518311,64.586151 229.827820,68.225121 
	C227.065536,69.262421 223.852997,70.644447 222.241272,72.875618 
	C219.037811,77.310303 216.802963,82.444679 213.488403,86.962479 
	C204.843292,82.655167 196.212265,78.319267 187.549622,74.047508 
	C175.689590,68.199043 163.843155,62.319603 151.887207,56.672981 
	C150.274506,55.911324 147.758652,55.752556 146.172440,56.460506 
	C137.106674,60.506714 128.140182,64.787987 119.246811,69.204575 
	C109.190849,74.198532 99.321770,79.571198 89.235542,84.501190 
	C78.296150,89.848213 67.167809,94.807404 56.189171,100.075981 
	C52.023800,102.074921 48.223068,104.634315 47.134941,109.643120 
	C45.435638,117.465256 43.758072,125.292130 42.043125,133.110825 
	C39.136044,146.364624 36.214569,159.615265 33.284737,172.864059 
	C31.024954,183.082901 28.405087,193.239029 26.641977,203.542267 
	C25.962830,207.511047 25.722383,212.900986 27.830370,215.772995 
	C38.229485,229.941269 49.445850,243.512207 60.446442,257.235718 
	C69.914871,269.047852 79.906815,280.472687 88.784737,292.709076 
	C92.120956,297.307343 95.511002,298.074799 100.369820,298.057251 
	C130.680450,297.947845 160.994965,297.754974 191.300613,298.158386 
	C199.961792,298.273651 206.226059,296.841766 211.804855,289.014954 
	C222.737930,273.676300 235.214737,259.442505 246.942947,244.664337 
	C254.009720,235.759857 260.426758,226.290970 268.026703,217.880829 
	C271.371124,214.179916 272.677429,210.632980 271.845154,206.413986 
	C269.886414,196.484436 267.375153,186.663879 265.999237,176.673553 
M417.518646,229.015442 
	C421.167816,233.684891 424.788055,238.377472 428.493530,243.001816 
	C429.137787,243.805862 430.133820,244.874435 430.980438,244.886276 
	C440.543610,245.019791 450.109283,244.970871 461.123718,244.970871 
	C448.117279,229.088516 436.022095,214.318893 424.084351,199.741516 
	C435.503876,186.063263 446.339447,173.084442 458.098602,158.999390 
	C450.411499,158.999390 444.103699,159.560715 437.940521,158.856384 
	C430.346436,157.988541 425.843170,160.937836 421.763916,167.185287 
	C416.432129,175.350922 409.906494,182.737015 402.933289,191.692963 
	C402.933289,179.914154 402.933289,169.700333 402.933289,159.403625 
	C394.690613,159.403625 386.988525,159.403625 379.324585,159.403625 
	C379.324585,188.055222 379.324585,216.301376 379.324585,244.573853 
	C387.358704,244.573853 395.062195,244.573853 403.342468,244.573853 
	C403.342468,233.349991 403.342468,222.545135 403.342468,210.873901 
	C408.335541,217.316376 412.671967,222.911621 417.518646,229.015442 
M542.347351,204.261185 
	C542.129578,205.728806 542.031677,207.226379 541.673828,208.659027 
	C539.884705,215.821884 540.459351,223.104858 543.479614,229.489746 
	C551.622498,246.703690 571.924438,252.856216 587.052856,242.057251 
	C588.120667,243.080383 589.082397,244.814255 590.110535,244.854584 
	C596.551758,245.107239 603.007690,244.982254 609.622070,244.982254 
	C609.622070,225.079620 609.622070,205.712357 609.622070,186.007034 
	C603.104309,186.007034 596.952576,185.848816 590.821045,186.130844 
	C589.478088,186.192627 588.207153,187.822937 587.515503,188.304474 
	C582.300476,186.856964 577.198486,184.398804 572.010498,184.201462 
	C557.942688,183.666321 548.257141,190.670471 542.347351,204.261185 
M784.048950,189.442932 
	C772.390076,196.682175 769.468628,210.833771 771.375061,222.617447 
	C773.035645,232.881210 778.629517,240.739182 788.416321,244.606720 
	C799.854614,249.126938 811.558044,249.280151 822.863037,243.878265 
	C828.862244,241.011673 835.933289,232.918808 834.569092,226.030289 
	C828.381165,226.030289 822.080017,225.959900 815.783752,226.103546 
	C814.799438,226.125992 813.579468,226.905502 812.908020,227.704376 
	C809.335754,231.954773 804.833374,232.635117 799.993286,230.854462 
	C795.292419,229.125031 793.691101,225.071411 793.270325,219.805878 
	C807.520447,219.805878 821.600281,219.805878 835.571777,219.805878 
	C838.285461,203.187744 828.378784,188.677246 814.351318,185.357178 
	C804.043335,182.917450 794.104614,184.176163 784.048950,189.442932 
M495.112885,203.417755 
	C502.950653,201.068344 507.364502,204.094772 507.966980,212.325439 
	C508.124573,214.478287 507.999603,216.652008 507.999878,218.816132 
	C508.001007,227.409180 508.000366,236.002213 508.000366,244.563873 
	C515.722107,244.563873 522.754883,244.563873 529.992371,244.563873 
	C529.992371,230.983063 530.580383,217.803375 529.816589,204.702499 
	C529.138306,193.068192 521.981506,185.066544 509.000885,184.910858 
	C501.865753,184.825272 495.327301,185.973953 489.351807,191.106400 
	C489.056244,189.020187 488.862762,187.654495 488.691132,186.443146 
	C481.338928,186.443146 474.288330,186.443146 467.344757,186.443146 
	C467.344757,206.121933 467.344757,225.355759 467.344757,244.560181 
	C474.728943,244.560181 481.762115,244.560181 489.000641,244.560181 
	C489.000641,234.470734 488.876587,224.818268 489.055817,215.171417 
	C489.138763,210.707855 489.697540,206.199036 495.112885,203.417755 
M737.906921,197.357285 
	C735.395020,202.590530 732.883118,207.823761 729.941101,213.953171 
	C725.650024,204.918686 721.915283,196.888489 717.983887,188.955750 
	C717.383301,187.743881 715.900330,186.180679 714.779541,186.142853 
	C707.348572,185.892090 699.905029,186.013062 691.783997,186.013062 
	C692.885315,188.419373 693.607971,190.205643 694.495789,191.905685 
	C701.908081,206.098434 709.404419,220.247482 716.766785,234.465973 
	C722.418884,245.381607 722.353638,245.510757 734.431519,244.883957 
	C735.973083,244.803970 738.103821,243.516113 738.827637,242.175552 
	C746.275940,228.380692 753.517029,214.473389 760.755005,200.565750 
	C763.159851,195.944946 765.389099,191.232758 767.976990,185.999268 
	C763.567627,185.999268 759.712341,186.447037 755.999207,185.910431 
	C746.955627,184.603516 740.199951,186.581009 737.906921,197.357285 
M646.994263,209.644653 
	C646.994263,207.884109 646.994263,206.123566 646.994263,203.910172 
	C650.962341,203.910172 654.216675,203.910172 657.633667,203.910172 
	C657.633667,197.745499 657.633667,192.045670 657.633667,185.890335 
	C654.016113,185.890335 650.761658,185.890335 646.989258,185.890335 
	C646.989258,180.994583 647.238403,176.522079 646.845947,172.106613 
	C646.718994,170.678421 644.977417,168.305862 643.856445,168.235107 
	C637.774353,167.851257 631.655273,168.052902 624.912170,168.052902 
	C624.912170,174.297440 624.912170,180.017792 624.912170,185.757553 
	C622.335815,185.956192 620.400635,186.105408 618.370667,186.261917 
	C618.370667,192.299576 618.370667,198.011200 618.370667,203.777893 
	C620.670227,203.956024 622.605408,204.105927 625.131287,204.301590 
	C625.131287,217.940613 625.131287,231.305969 625.131287,244.704971 
	C632.665100,244.704971 639.573425,244.704971 646.994202,244.704971 
	C646.994202,233.148392 646.994202,221.879776 646.994263,209.644653 
M686.999146,190.676758 
	C686.891296,189.239868 686.783447,187.802979 686.669861,186.289902 
	C679.383118,186.289902 672.473999,186.289902 665.365479,186.289902 
	C665.365479,205.930161 665.365479,225.279343 665.365479,244.716400 
	C672.645081,244.716400 679.557007,244.716400 686.999634,244.716400 
	C686.999634,226.840103 686.999634,209.242294 686.999146,190.676758 
M685.534851,156.031158 
	C684.474609,155.278030 683.439331,154.486450 682.349792,153.778336 
	C677.359863,150.535126 672.503662,151.695236 668.127930,154.809998 
	C663.677856,157.977692 663.133423,163.064743 664.234070,167.766098 
	C665.383179,172.674789 669.190918,175.995117 674.263855,176.801270 
	C679.089355,177.568100 683.782410,176.018753 686.369934,171.833572 
	C689.360840,166.995804 689.340820,161.604584 685.534851,156.031158 
z"/>
<path fill="#0466AD" opacity="1.000000" stroke="none" 
	d="
M265.087402,176.799225 
	C267.375153,186.663879 269.886414,196.484436 271.845154,206.413986 
	C272.677429,210.632980 271.371124,214.179916 268.026703,217.880829 
	C260.426758,226.290970 254.009720,235.759857 246.942947,244.664337 
	C235.214737,259.442505 222.737930,273.676300 211.804855,289.014954 
	C206.226059,296.841766 199.961792,298.273651 191.300613,298.158386 
	C160.994965,297.754974 130.680450,297.947845 100.369820,298.057251 
	C95.511002,298.074799 92.120956,297.307343 88.784737,292.709076 
	C79.906815,280.472687 69.914871,269.047852 60.446442,257.235718 
	C49.445850,243.512207 38.229485,229.941269 27.830370,215.772995 
	C25.722383,212.900986 25.962830,207.511047 26.641977,203.542267 
	C28.405087,193.239029 31.024954,183.082901 33.284737,172.864059 
	C36.214569,159.615265 39.136044,146.364624 42.043125,133.110825 
	C43.758072,125.292130 45.435638,117.465256 47.134941,109.643120 
	C48.223068,104.634315 52.023800,102.074921 56.189171,100.075981 
	C67.167809,94.807404 78.296150,89.848213 89.235542,84.501190 
	C99.321770,79.571198 109.190849,74.198532 119.246811,69.204575 
	C128.140182,64.787987 137.106674,60.506714 146.172440,56.460506 
	C147.758652,55.752556 150.274506,55.911324 151.887207,56.672981 
	C163.843155,62.319603 175.689590,68.199043 187.549622,74.047508 
	C196.212265,78.319267 204.843292,82.655167 213.821564,87.488075 
	C211.662186,92.699524 208.997650,97.304665 206.745667,102.103416 
	C205.519211,104.716904 203.974625,107.795280 204.327194,110.429245 
	C205.849289,121.799934 207.818832,133.124603 210.102066,144.369263 
	C210.638702,147.012085 212.616867,149.719162 214.651779,151.630066 
	C219.616882,156.292633 225.418442,160.106537 230.125763,164.991959 
	C237.655640,172.806732 246.113419,176.896851 257.173859,175.251938 
	C259.679565,174.879272 262.442749,176.237656 265.087402,176.799225 
M171.811020,234.865509 
	C177.869614,234.865509 183.928207,234.865509 190.923370,234.865509 
	C189.214188,231.964661 188.074646,229.986130 186.893356,228.032867 
	C178.206985,213.670135 169.564941,199.280060 160.767639,184.985550 
	C159.325867,182.642838 159.308823,181.102158 161.092270,178.886185 
	C167.441467,170.997147 173.536774,162.903793 179.727600,154.887344 
	C182.678833,151.065842 185.628738,147.243332 189.255829,142.544815 
	C185.714462,142.544815 183.420349,142.512939 181.127411,142.551086 
	C175.316910,142.647751 168.481201,140.917755 163.979279,143.403061 
	C159.282242,145.996094 156.790710,152.632935 153.412460,157.555054 
	C147.936813,165.533096 142.524429,173.554535 137.085327,181.557663 
	C136.782745,181.458145 136.480164,181.358612 136.177582,181.259094 
	C136.177582,168.534271 136.177582,155.809448 136.177582,142.826172 
	C129.130142,142.826172 122.555435,142.826172 115.867683,142.826172 
	C115.867683,173.593903 115.867683,204.077072 115.867683,234.546829 
	C122.757072,234.546829 129.181976,234.546829 136.161087,234.546829 
	C136.161087,226.626617 136.667603,218.968597 136.014832,211.410721 
	C135.395035,204.234695 139.504883,200.264252 144.186722,195.509842 
	C151.105896,207.651215 157.867340,219.243530 164.308105,231.011337 
	C165.896667,233.913788 167.634796,235.396332 171.811020,234.865509 
z"/>
<path fill="#6593C8" opacity="1.000000" stroke="none" 
	d="
M265.543335,176.736389 
	C262.442749,176.237656 259.679565,174.879272 257.173859,175.251938 
	C246.113419,176.896851 237.655640,172.806732 230.125763,164.991959 
	C225.418442,160.106537 219.616882,156.292633 214.651779,151.630066 
	C212.616867,149.719162 210.638702,147.012085 210.102066,144.369263 
	C207.818832,133.124603 205.849289,121.799934 204.327194,110.429245 
	C203.974625,107.795280 205.519211,104.716904 206.745667,102.103416 
	C208.997650,97.304665 211.662186,92.699524 214.161301,87.651802 
	C216.802963,82.444679 219.037811,77.310303 222.241272,72.875618 
	C223.852997,70.644447 227.065536,69.262421 229.827820,68.225121 
	C239.518311,64.586151 249.290802,61.151997 259.120270,57.906940 
	C261.323547,57.179565 264.128235,56.807270 266.239197,57.514984 
	C276.646057,61.003929 286.826874,65.176407 297.267090,68.552208 
	C302.053711,70.099945 304.019287,73.528297 306.224792,77.403900 
	C310.871033,85.568336 315.817871,93.564186 320.744171,101.565941 
	C324.352264,107.426575 322.764526,113.487434 321.787720,119.577446 
	C321.121277,123.732346 320.812988,127.953468 319.976410,132.070175 
	C318.826019,137.731400 318.196564,143.752289 315.695312,148.802567 
	C313.794495,152.640518 309.467255,155.377625 305.964722,158.298813 
	C300.011322,163.264069 293.587433,167.694870 287.890076,172.926208 
	C284.554260,175.989166 281.070374,176.602509 276.972656,176.512024 
	C273.317841,176.431335 269.657257,176.609589 265.543335,176.736389 
M256.989532,115.672226 
	C256.989624,115.172989 256.986969,114.673737 256.990143,114.174515 
	C257.028900,108.062759 259.024780,105.548660 263.883301,105.490135 
	C268.284424,105.437126 269.749847,107.434669 269.826416,113.869553 
	C269.895721,119.693382 269.960846,125.521233 269.817383,131.342133 
	C269.732117,134.803345 271.797974,135.101822 274.349609,134.925552 
	C276.656799,134.766144 279.731628,135.820663 279.698517,131.702332 
	C279.638306,124.215233 280.020447,116.696770 279.460083,109.248421 
	C278.727081,99.505081 269.604523,94.665062 260.821503,98.925629 
	C259.503998,99.564743 258.294312,100.426102 257.034729,101.184654 
	C257.047821,100.702850 257.060913,100.221054 257.074005,99.739258 
	C254.263916,99.265350 251.341354,98.172035 248.704346,98.650970 
	C247.771851,98.820328 247.107315,102.817184 247.058502,105.082504 
	C246.872086,113.732147 247.103790,122.390518 246.937607,131.040985 
	C246.857773,135.196182 249.453751,134.932785 252.225159,134.961792 
	C254.951340,134.990295 257.192383,134.872375 257.034485,131.109482 
	C256.832397,126.291924 256.988007,121.459358 256.989532,115.672226 
z"/>
<path fill="#0466AD" opacity="1.000000" stroke="none" 
	d="
M417.263550,228.761139 
	C412.671967,222.911621 408.335541,217.316376 403.342468,210.873901 
	C403.342468,222.545135 403.342468,233.349991 403.342468,244.573853 
	C395.062195,244.573853 387.358704,244.573853 379.324585,244.573853 
	C379.324585,216.301376 379.324585,188.055222 379.324585,159.403625 
	C386.988525,159.403625 394.690613,159.403625 402.933289,159.403625 
	C402.933289,169.700333 402.933289,179.914154 402.933289,191.692963 
	C409.906494,182.737015 416.432129,175.350922 421.763916,167.185287 
	C425.843170,160.937836 430.346436,157.988541 437.940521,158.856384 
	C444.103699,159.560715 450.411499,158.999390 458.098602,158.999390 
	C446.339447,173.084442 435.503876,186.063263 424.084351,199.741516 
	C436.022095,214.318893 448.117279,229.088516 461.123718,244.970871 
	C450.109283,244.970871 440.543610,245.019791 430.980438,244.886276 
	C430.133820,244.874435 429.137787,243.805862 428.493530,243.001816 
	C424.788055,238.377472 421.167816,233.684891 417.263550,228.761139 
z"/>
<path fill="#0466AD" opacity="1.000000" stroke="none" 
	d="
M542.586182,203.933960 
	C548.257141,190.670471 557.942688,183.666321 572.010498,184.201462 
	C577.198486,184.398804 582.300476,186.856964 587.515503,188.304474 
	C588.207153,187.822937 589.478088,186.192627 590.821045,186.130844 
	C596.952576,185.848816 603.104309,186.007034 609.622070,186.007034 
	C609.622070,205.712357 609.622070,225.079620 609.622070,244.982254 
	C603.007690,244.982254 596.551758,245.107239 590.110535,244.854584 
	C589.082397,244.814255 588.120667,243.080383 587.052856,242.057251 
	C571.924438,252.856216 551.622498,246.703690 543.479614,229.489746 
	C540.459351,223.104858 539.884705,215.821884 541.673828,208.659027 
	C542.031677,207.226379 542.129578,205.728806 542.586182,203.933960 
M566.420959,222.864594 
	C567.366211,223.799164 568.210632,224.872681 569.274170,225.644302 
	C573.939758,229.029526 580.080444,228.764404 584.374634,225.091354 
	C588.657104,221.428329 589.765564,215.590256 587.153320,210.456619 
	C584.443787,205.131805 578.937866,202.548706 573.342224,203.977142 
	C564.995117,206.107956 561.886597,213.880493 566.420959,222.864594 
z"/>
<path fill="#0466AD" opacity="1.000000" stroke="none" 
	d="
M784.345825,189.217606 
	C794.104614,184.176163 804.043335,182.917450 814.351318,185.357178 
	C828.378784,188.677246 838.285461,203.187744 835.571777,219.805878 
	C821.600281,219.805878 807.520447,219.805878 793.270325,219.805878 
	C793.691101,225.071411 795.292419,229.125031 799.993286,230.854462 
	C804.833374,232.635117 809.335754,231.954773 812.908020,227.704376 
	C813.579468,226.905502 814.799438,226.125992 815.783752,226.103546 
	C822.080017,225.959900 828.381165,226.030289 834.569092,226.030289 
	C835.933289,232.918808 828.862244,241.011673 822.863037,243.878265 
	C811.558044,249.280151 799.854614,249.126938 788.416321,244.606720 
	C778.629517,240.739182 773.035645,232.881210 771.375061,222.617447 
	C769.468628,210.833771 772.390076,196.682175 784.345825,189.217606 
M810.163879,206.999268 
	C811.701721,206.898972 813.239563,206.798660 814.954956,206.686783 
	C812.622498,201.098312 808.974060,198.670822 803.742798,199.022461 
	C798.912109,199.347168 796.263733,202.323929 794.284302,206.999405 
	C799.665283,206.999405 804.453003,206.999405 810.163879,206.999268 
z"/>
<path fill="#0466AD" opacity="1.000000" stroke="none" 
	d="
M494.804047,203.648010 
	C489.697540,206.199036 489.138763,210.707855 489.055817,215.171417 
	C488.876587,224.818268 489.000641,234.470734 489.000641,244.560181 
	C481.762115,244.560181 474.728943,244.560181 467.344757,244.560181 
	C467.344757,225.355759 467.344757,206.121933 467.344757,186.443146 
	C474.288330,186.443146 481.338928,186.443146 488.691132,186.443146 
	C488.862762,187.654495 489.056244,189.020187 489.351807,191.106400 
	C495.327301,185.973953 501.865753,184.825272 509.000885,184.910858 
	C521.981506,185.066544 529.138306,193.068192 529.816589,204.702499 
	C530.580383,217.803375 529.992371,230.983063 529.992371,244.563873 
	C522.754883,244.563873 515.722107,244.563873 508.000366,244.563873 
	C508.000366,236.002213 508.001007,227.409180 507.999878,218.816132 
	C507.999603,216.652008 508.124573,214.478287 507.966980,212.325439 
	C507.364502,204.094772 502.950653,201.068344 494.804047,203.648010 
z"/>
<path fill="#0465AD" opacity="1.000000" stroke="none" 
	d="
M738.002930,196.990509 
	C740.199951,186.581009 746.955627,184.603516 755.999207,185.910431 
	C759.712341,186.447037 763.567627,185.999268 767.976990,185.999268 
	C765.389099,191.232758 763.159851,195.944946 760.755005,200.565750 
	C753.517029,214.473389 746.275940,228.380692 738.827637,242.175552 
	C738.103821,243.516113 735.973083,244.803970 734.431519,244.883957 
	C722.353638,245.510757 722.418884,245.381607 716.766785,234.465973 
	C709.404419,220.247482 701.908081,206.098434 694.495789,191.905685 
	C693.607971,190.205643 692.885315,188.419373 691.783997,186.013062 
	C699.905029,186.013062 707.348572,185.892090 714.779541,186.142853 
	C715.900330,186.180679 717.383301,187.743881 717.983887,188.955750 
	C721.915283,196.888489 725.650024,204.918686 729.941101,213.953171 
	C732.883118,207.823761 735.395020,202.590530 738.002930,196.990509 
z"/>
<path fill="#0466AD" opacity="1.000000" stroke="none" 
	d="
M646.994263,210.127914 
	C646.994202,221.879776 646.994202,233.148392 646.994202,244.704971 
	C639.573425,244.704971 632.665100,244.704971 625.131287,244.704971 
	C625.131287,231.305969 625.131287,217.940613 625.131287,204.301590 
	C622.605408,204.105927 620.670227,203.956024 618.370667,203.777893 
	C618.370667,198.011200 618.370667,192.299576 618.370667,186.261917 
	C620.400635,186.105408 622.335815,185.956192 624.912170,185.757553 
	C624.912170,180.017792 624.912170,174.297440 624.912170,168.052902 
	C631.655273,168.052902 637.774353,167.851257 643.856445,168.235107 
	C644.977417,168.305862 646.718994,170.678421 646.845947,172.106613 
	C647.238403,176.522079 646.989258,180.994583 646.989258,185.890335 
	C650.761658,185.890335 654.016113,185.890335 657.633667,185.890335 
	C657.633667,192.045670 657.633667,197.745499 657.633667,203.910172 
	C654.216675,203.910172 650.962341,203.910172 646.994263,203.910172 
	C646.994263,206.123566 646.994263,207.884109 646.994263,210.127914 
z"/>
<path fill="#0466AD" opacity="1.000000" stroke="none" 
	d="
M686.999390,191.160614 
	C686.999634,209.242294 686.999634,226.840103 686.999634,244.716400 
	C679.557007,244.716400 672.645081,244.716400 665.365479,244.716400 
	C665.365479,225.279343 665.365479,205.930161 665.365479,186.289902 
	C672.473999,186.289902 679.383118,186.289902 686.669861,186.289902 
	C686.783447,187.802979 686.891296,189.239868 686.999390,191.160614 
z"/>
<path fill="#0465AC" opacity="1.000000" stroke="none" 
	d="
M685.794067,156.309113 
	C689.340820,161.604584 689.360840,166.995804 686.369934,171.833572 
	C683.782410,176.018753 679.089355,177.568100 674.263855,176.801270 
	C669.190918,175.995117 665.383179,172.674789 664.234070,167.766098 
	C663.133423,163.064743 663.677856,157.977692 668.127930,154.809998 
	C672.503662,151.695236 677.359863,150.535126 682.349792,153.778336 
	C683.439331,154.486450 684.474609,155.278030 685.794067,156.309113 
z"/>
<path fill="#F8FBFD" opacity="1.000000" stroke="none" 
	d="
M171.356293,234.865601 
	C167.634796,235.396332 165.896667,233.913788 164.308105,231.011337 
	C157.867340,219.243530 151.105896,207.651215 144.186722,195.509842 
	C139.504883,200.264252 135.395035,204.234695 136.014832,211.410721 
	C136.667603,218.968597 136.161087,226.626617 136.161087,234.546829 
	C129.181976,234.546829 122.757072,234.546829 115.867683,234.546829 
	C115.867683,204.077072 115.867683,173.593903 115.867683,142.826172 
	C122.555435,142.826172 129.130142,142.826172 136.177582,142.826172 
	C136.177582,155.809448 136.177582,168.534271 136.177582,181.259094 
	C136.480164,181.358612 136.782745,181.458145 137.085327,181.557663 
	C142.524429,173.554535 147.936813,165.533096 153.412460,157.555054 
	C156.790710,152.632935 159.282242,145.996094 163.979279,143.403061 
	C168.481201,140.917755 175.316910,142.647751 181.127411,142.551086 
	C183.420349,142.512939 185.714462,142.544815 189.255829,142.544815 
	C185.628738,147.243332 182.678833,151.065842 179.727600,154.887344 
	C173.536774,162.903793 167.441467,170.997147 161.092270,178.886185 
	C159.308823,181.102158 159.325867,182.642838 160.767639,184.985550 
	C169.564941,199.280060 178.206985,213.670135 186.893356,228.032867 
	C188.074646,229.986130 189.214188,231.964661 190.923370,234.865509 
	C183.928207,234.865509 177.869614,234.865509 171.356293,234.865601 
z"/>
<path fill="#F5F8FC" opacity="1.000000" stroke="none" 
	d="
M256.989502,116.152740 
	C256.988007,121.459358 256.832397,126.291924 257.034485,131.109482 
	C257.192383,134.872375 254.951340,134.990295 252.225159,134.961792 
	C249.453751,134.932785 246.857773,135.196182 246.937607,131.040985 
	C247.103790,122.390518 246.872086,113.732147 247.058502,105.082504 
	C247.107315,102.817184 247.771851,98.820328 248.704346,98.650970 
	C251.341354,98.172035 254.263916,99.265350 257.074005,99.739258 
	C257.060913,100.221054 257.047821,100.702850 257.034729,101.184654 
	C258.294312,100.426102 259.503998,99.564743 260.821503,98.925629 
	C269.604523,94.665062 278.727081,99.505081 279.460083,109.248421 
	C280.020447,116.696770 279.638306,124.215233 279.698517,131.702332 
	C279.731628,135.820663 276.656799,134.766144 274.349609,134.925552 
	C271.797974,135.101822 269.732117,134.803345 269.817383,131.342133 
	C269.960846,125.521233 269.895721,119.693382 269.826416,113.869553 
	C269.749847,107.434669 268.284424,105.437126 263.883301,105.490135 
	C259.024780,105.548660 257.028900,108.062759 256.990143,114.174515 
	C256.986969,114.673737 256.989624,115.172989 256.989502,116.152740 
z"/>
<path fill="#000000" opacity="1.000000" stroke="none" 
	d="
M566.240295,222.525574 
	C561.886597,213.880493 564.995117,206.107956 573.342224,203.977142 
	C578.937866,202.548706 584.443787,205.131805 587.153320,210.456619 
	C589.765564,215.590256 588.657104,221.428329 584.374634,225.091354 
	C580.080444,228.764404 573.939758,229.029526 569.274170,225.644302 
	C568.210632,224.872681 567.366211,223.799164 566.240295,222.525574 
z"/>
<path fill="#000000" opacity="1.000000" stroke="none" 
	d="
M809.702271,206.999329 
	C804.453003,206.999405 799.665283,206.999405 794.284302,206.999405 
	C796.263733,202.323929 798.912109,199.347168 803.742798,199.022461 
	C808.974060,198.670822 812.622498,201.098312 814.954956,206.686783 
	C813.239563,206.798660 811.701721,206.898972 809.702271,206.999329 
z"/>
</svg>